<svg version="1.1" id="Layer_1" xmlns="http://www.w3.org/2000/svg" xmlns:xlink="http://www.w3.org/1999/xlink" x="0px" y="0px"
	 width="100%" viewBox="0 0 1024 1024" enable-background="new 0 0 1024 1024" xml:space="preserve">
<path fill="#000000" opacity="1.000000" stroke="none" 
	d="
M317.518799,374.436066 
	C303.271149,349.309875 290.454742,323.897888 280.901764,296.977142 
	C274.416718,278.701996 269.111572,260.150909 270.825623,240.372971 
	C271.401733,233.725708 272.340332,227.147369 274.113220,220.712555 
	C278.889618,203.376465 291.044830,194.563248 307.962860,190.617706 
	C334.135071,184.513962 356.780426,191.909164 379.004425,205.765060 
	C406.511780,222.914978 432.055115,242.657761 458.134399,261.724182 
	C490.809967,285.613068 522.931152,310.255066 555.935059,333.701111 
	C558.823303,335.752899 560.755432,335.526489 563.421326,333.612122 
	C587.101196,316.607758 610.709534,299.497833 634.621887,282.824860 
	C657.802368,266.662140 682.517456,253.232758 709.263611,243.883896 
	C719.283875,240.381393 729.664368,239.232010 740.182312,242.108078 
	C754.205322,245.942627 759.302612,255.738480 761.946106,269.176605 
	C764.672607,283.036987 763.376282,297.211029 761.728577,310.953552 
	C757.344666,347.519592 746.331238,382.031921 725.301697,412.768066 
	C717.814575,423.710907 708.946716,433.150696 697.115295,439.803589 
	C686.927429,445.532257 676.096436,445.495697 665.578857,443.590790 
	C643.356323,439.565948 624.598938,427.440369 605.917358,415.506470 
	C589.078674,404.749908 572.872864,393.076935 556.856567,381.146667 
	C554.678040,379.523956 553.339478,379.725220 551.224304,381.182129 
	C539.005920,389.597870 527.933960,399.426849 516.680725,409.019867 
	C504.041809,419.793976 491.618195,430.820831 479.118958,441.758331 
	C477.742157,442.963104 476.444824,444.265625 475.175903,445.585571 
	C464.326630,456.871033 452.800354,467.427826 440.924622,477.618011 
	C437.148102,480.858551 432.479828,480.534546 428.129395,480.760834 
	C423.175385,481.018494 418.158813,480.352448 413.187256,479.894440 
	C410.007477,479.601532 395.033752,462.587891 395.897308,459.802917 
	C397.655579,454.132599 399.537964,448.362335 404.803375,444.634186 
	C440.828125,419.127045 476.838135,393.599121 512.848328,368.071472 
	C517.702515,364.630341 522.531006,361.153046 527.923218,357.297974 
	C523.728455,353.927979 520.073059,350.879211 516.302551,347.980072 
	C488.979523,326.971497 461.652069,305.968475 434.288208,285.013153 
	C413.665100,269.219910 393.626556,252.653519 372.249603,237.857132 
	C363.799866,232.008499 354.633118,227.996429 344.248199,226.700943 
	C331.273773,225.082397 325.635773,231.893616 324.214844,243.235565 
	C322.504028,256.891296 327.888275,269.013397 332.408203,281.328369 
	C341.215881,305.325745 357.257904,324.902008 371.766693,345.379120 
	C379.941803,356.917114 388.760254,368.002960 397.420929,379.190247 
	C399.259979,381.565857 400.191650,383.921600 400.129608,386.945038 
	C399.979187,394.274536 400.055664,401.609650 400.112152,408.941956 
	C400.133911,411.769501 399.353455,414.131287 397.131561,416.023163 
	C391.943726,420.440460 386.926575,425.005951 381.264954,428.905792 
	C374.589752,433.503876 368.147583,433.562195 360.522217,431.540802 
	C352.880768,429.515137 348.409729,425.064392 344.549835,418.644775 
	C335.713654,403.948669 326.017944,389.774414 317.518799,374.436066 
M601.342834,342.876495 
	C596.452881,346.206329 591.977966,349.996735 587.890015,354.514282 
	C592.103210,357.951447 596.830811,359.727264 601.164001,362.148254 
	C620.704041,373.065277 641.001953,382.260162 662.797485,387.704437 
	C677.118591,391.281647 690.056824,389.237518 700.947632,378.084381 
	C710.938843,367.852325 717.437256,355.636902 723.009277,342.724701 
	C729.134521,328.530670 733.352966,313.972443 732.742188,298.296326 
	C732.183350,283.956665 718.933472,276.219330 710.373413,277.695892 
	C700.582703,279.384766 691.040283,282.427643 682.522949,288.075653 
	C668.109009,297.633850 653.411804,306.767548 639.063171,316.420898 
	C626.521729,324.858398 614.296387,333.765594 601.342834,342.876495 
z"/>
<path fill="#000000" opacity="1.000000" stroke="none" 
	d="
M542.083069,683.187012 
	C531.577698,680.929749 521.235596,683.817322 510.960083,682.594299 
	C511.509491,679.636475 513.008423,679.765625 514.287109,679.640320 
	C520.675720,679.014343 524.137573,675.211243 525.419739,669.222534 
	C532.487610,636.211243 539.631042,603.215149 546.440247,570.150391 
	C547.742798,563.825195 547.649231,560.415833 540.033813,559.355469 
	C538.798035,559.183411 537.583679,558.870361 537.830200,557.304688 
	C538.065613,555.808899 539.432312,555.655945 540.583069,555.787292 
	C554.033569,557.323792 567.636292,555.464111 581.003723,557.083618 
	C595.504822,558.840332 602.738403,569.845154 600.538574,584.309631 
	C597.919861,601.528809 588.052979,612.135010 570.846924,616.836975 
	C581.559326,627.555298 580.748108,641.119507 581.210083,654.317993 
	C581.379028,659.143860 581.091187,663.984009 581.173462,668.814819 
	C581.325317,677.726868 581.375122,677.726013 587.775635,682.537537 
	C586.518127,685.098450 584.180115,684.511353 582.227051,684.206360 
	C577.429810,683.457031 574.137451,680.522400 571.888000,676.340088 
	C568.583069,670.195251 567.446167,663.459717 566.830627,656.643921 
	C566.007996,647.534485 565.424438,638.403381 564.726013,629.282593 
	C564.662598,628.454468 564.557739,627.623352 564.391052,626.810242 
	C562.996277,620.005981 560.743042,617.521240 555.912964,617.423157 
	C551.281982,617.329041 549.791931,619.181458 548.230896,626.610107 
	C545.220703,640.935303 542.120300,655.241577 539.118103,669.568420 
	C537.603455,676.796631 538.128540,677.537170 545.403198,679.679993 
	C546.163025,679.903748 546.883118,680.317017 547.557251,680.743835 
	C547.760803,680.872803 547.747314,681.344604 547.851013,681.724670 
	C546.602783,684.011475 544.401123,683.060303 542.083069,683.187012 
M575.598694,608.133484 
	C584.930481,597.601501 587.689697,585.012146 586.559082,571.442932 
	C585.978455,564.474060 581.112854,560.539368 574.072388,560.321167 
	C571.909424,560.254089 569.737549,560.400818 567.578979,560.281982 
	C564.134033,560.092285 562.174011,561.907410 561.487305,564.991333 
	C558.199402,579.756775 555.025085,594.547424 551.813965,609.329895 
	C551.243896,611.954529 552.141968,613.614136 554.965759,613.784546 
	C562.215454,614.222107 569.377380,614.247375 575.598694,608.133484 
z"/>
<path fill="#000000" opacity="1.000000" stroke="none" 
	d="
M245.999908,682.411011 
	C235.203506,682.592896 224.907318,682.788879 214.610306,682.923523 
	C213.990326,682.931580 213.363983,682.448975 213.318375,682.430359 
	C213.746429,679.602905 215.247223,679.774231 216.531662,679.631775 
	C223.049774,678.908875 226.496536,675.185913 227.828644,668.840515 
	C233.704025,640.853882 239.726837,612.898254 245.683960,584.928711 
	C246.757507,579.888245 247.775879,574.835938 248.815048,569.788147 
	C250.272552,562.708069 249.449814,561.312378 242.628357,559.401794 
	C241.678772,559.135803 240.608963,559.158752 240.103455,557.648254 
	C240.757935,555.159790 243.015259,555.702576 244.823334,555.828613 
	C264.293274,557.185791 283.764404,557.065613 303.223816,555.783630 
	C307.434204,555.506287 308.993927,556.734253 308.357574,561.067688 
	C307.440186,567.314941 306.922516,573.620544 306.209167,579.898376 
	C306.023468,581.532837 305.778839,583.176758 304.084137,583.971619 
	C301.490631,583.061646 302.128052,581.032471 302.035278,579.302917 
	C301.883820,576.480164 302.023621,573.604126 301.520538,570.845398 
	C300.371307,564.543518 296.089844,560.618835 289.910248,560.392456 
	C283.087494,560.142517 276.248199,560.381775 269.418060,560.279358 
	C266.098572,560.229675 264.465088,562.133606 263.835480,564.943909 
	C260.708221,578.902405 257.668304,592.880737 254.673752,606.868408 
	C253.986633,610.077942 255.720169,611.365784 258.788330,611.648254 
	C270.466766,612.723755 278.294342,606.886658 281.687592,594.658813 
	C282.390656,592.125244 281.838715,588.984009 284.545471,587.105713 
	C287.652527,591.102661 281.387817,634.524780 277.265076,638.681702 
	C275.053955,637.606201 275.839783,635.570923 275.772766,633.852783 
	C275.662476,631.027771 275.942352,628.157654 275.545807,625.379700 
	C274.673126,619.266724 270.513336,615.688110 264.331787,615.307434 
	C253.408524,614.634827 253.119797,614.807617 250.748291,625.600952 
	C247.357391,641.033813 244.020432,656.478699 240.708176,671.928650 
	C239.493027,677.596680 240.462982,678.741760 246.276672,678.812988 
	C248.942368,678.845581 251.615646,678.704895 254.273468,678.855408 
	C264.372650,679.427185 271.865082,674.818787 277.829742,667.143311 
	C282.277740,661.419373 285.219238,654.912964 287.618652,648.123352 
	C288.255219,646.322083 288.287140,644.108704 290.637360,643.109619 
	C293.137451,644.398865 292.080811,646.412292 291.593903,648.212219 
	C288.769470,658.653076 285.918030,669.086670 283.035736,679.511780 
	C282.482330,681.513367 281.737549,682.929199 278.966461,682.844177 
	C268.150024,682.512756 257.322998,682.526306 245.999908,682.411011 
z"/>
<path fill="#000000" opacity="1.000000" stroke="none" 
	d="
M430.260193,649.422729 
	C435.852905,623.156677 441.342651,597.296631 446.774414,571.424500 
	C448.677704,562.359009 448.479309,562.136047 439.580078,559.136597 
	C439.028534,558.950684 438.605774,558.382690 438.015533,557.905518 
	C439.042877,555.093933 441.296356,555.708496 443.097015,555.839294 
	C462.404266,557.242310 481.705200,556.906555 501.011719,555.848572 
	C507.073242,555.516479 507.246460,555.844299 506.461884,561.837341 
	C505.684998,567.771240 505.062805,573.725159 504.353546,579.668030 
	C504.163605,581.259216 504.483673,583.121338 502.204407,583.873840 
	C499.830566,582.766174 500.703217,580.491333 500.727020,578.716858 
	C500.776855,574.997681 500.371033,571.414795 498.898071,567.978271 
	C496.860016,563.223267 493.220612,560.548706 488.107849,560.382996 
	C481.448822,560.167053 474.777313,560.368286 468.112518,560.284729 
	C464.680206,560.241699 462.815735,562.022949 462.122040,565.138367 
	C459.157410,578.452393 456.102936,591.749695 453.410919,605.119507 
	C452.312836,610.573303 453.506012,611.578979 459.045380,611.636108 
	C470.069855,611.749817 476.620819,606.459167 479.822815,595.165894 
	C480.566772,592.542053 480.075775,589.420898 482.470459,587.351257 
	C485.015381,587.563171 484.781036,589.195679 484.667480,590.973389 
	C483.709961,605.959167 479.654602,620.470032 477.889832,635.332092 
	C477.724762,636.722290 477.529938,638.415344 475.526398,638.796936 
	C473.173676,637.895752 473.574860,635.882690 474.050385,634.206970 
	C474.957947,631.008850 474.524414,627.967834 473.742706,624.857971 
	C471.679291,616.648682 460.595367,611.763428 453.177277,615.861511 
	C451.622192,616.720642 450.772186,618.190979 450.404633,619.854370 
	C446.421356,637.881531 442.437073,655.908630 438.551636,673.956970 
	C437.809113,677.405945 439.690521,678.645935 443.037628,678.842407 
	C465.606110,680.166870 475.762848,673.601379 484.384888,652.345703 
	C485.665131,649.189636 485.447144,645.092285 488.853638,642.952515 
	C491.185181,644.244141 490.526062,646.019470 490.110779,647.548035 
	C487.187408,658.308228 484.164032,669.041260 481.221283,679.796326 
	C480.601501,682.061523 479.522552,682.790833 476.958160,682.753845 
	C456.984192,682.465637 437.001190,681.650330 417.035095,683.171692 
	C415.259460,683.306946 412.937653,684.075134 412.058960,681.473450 
	C412.356934,679.762085 413.652100,679.779907 414.769684,679.650269 
	C421.534973,678.865601 425.018463,674.884644 426.230957,668.368408 
	C427.386200,662.159790 428.821991,656.003357 430.260193,649.422729 
z"/>
<path fill="#000000" opacity="1.000000" stroke="none" 
	d="
M659.260742,590.619751 
	C657.878296,585.287842 656.622925,580.349243 655.367554,575.410583 
	C655.093567,575.404114 654.819580,575.397583 654.545593,575.391113 
	C652.242126,586.034241 649.918457,596.673096 647.639526,607.321533 
	C643.322876,627.491699 639.029236,647.666748 634.731934,667.841003 
	C633.022705,675.864929 633.638062,677.006042 641.287720,679.722412 
	C642.304260,680.083435 643.268921,680.386597 643.141541,681.638306 
	C643.016968,682.862610 642.012268,683.179932 640.951172,683.229919 
	C639.953674,683.276978 638.923889,683.410706 637.958313,683.233643 
	C632.494385,682.231567 627.066833,682.202393 621.577759,683.183289 
	C619.793396,683.502258 617.567627,683.866272 616.416504,681.850891 
	C616.743469,679.652588 618.229065,679.781860 619.522217,679.630127 
	C625.997070,678.870117 629.509766,675.234924 630.843079,668.853577 
	C636.693481,640.851379 642.705872,612.882996 648.654785,584.901428 
	C649.761414,579.696228 650.884399,574.494080 651.931824,569.276855 
	C653.283142,562.545715 652.350342,561.091736 645.706421,559.402527 
	C644.752136,559.159912 643.686707,559.213257 643.147217,557.950500 
	C643.332825,555.257080 645.518738,555.752869 647.203613,555.818542 
	C652.359741,556.019348 657.506958,556.451538 662.663147,556.646729 
	C666.094971,556.776672 666.959656,558.985413 667.660156,561.803162 
	C674.158936,587.942871 680.734863,614.063477 687.305115,640.185425 
	C687.909912,642.590027 688.630249,644.965637 690.259521,647.455139 
	C691.859131,640.005981 693.470154,632.559204 695.056152,625.107117 
	C698.933472,606.889221 702.837891,588.677063 706.651978,570.445923 
	C708.359009,562.286560 707.833679,561.564026 699.818237,559.242493 
	C699.218689,559.068909 698.685669,558.665405 698.108093,558.361694 
	C699.860413,555.569580 720.999084,554.904602 724.826050,557.365356 
	C724.656067,559.554688 722.842041,559.310425 721.468018,559.503418 
	C714.693237,560.454590 711.604553,564.627747 710.279846,571.079773 
	C705.762451,593.081970 700.986267,615.031067 696.309143,637.000488 
	C693.296204,651.153137 690.304443,665.310303 687.245239,679.453003 
	C686.846191,681.297852 686.898499,683.983093 684.248657,683.917664 
	C681.926880,683.860291 682.080383,681.348328 681.651855,679.644165 
	C674.223328,650.102234 666.806885,620.557312 659.260742,590.619751 
z"/>
<path fill="#000000" opacity="1.000000" stroke="none" 
	d="
M340.906677,675.869446 
	C345.225830,668.661743 345.624908,660.686462 347.291809,653.118164 
	C353.438507,625.210022 359.259735,597.230164 365.183502,569.273071 
	C365.492493,567.814758 365.668884,566.322815 365.818512,564.837585 
	C366.134644,561.699219 364.769592,560.357666 361.524750,560.258484 
	C351.090698,559.939514 345.036865,565.908813 340.344177,574.269287 
	C338.556305,577.454651 338.616028,581.668091 335.304016,584.105713 
	C332.642700,582.501465 333.645691,580.430969 334.146942,578.636902 
	C335.936981,572.230103 337.959778,565.887390 339.696930,559.466980 
	C340.513275,556.449829 342.296570,555.558655 345.203888,555.778320 
	C364.657776,557.248169 384.116486,556.958252 403.574921,555.824585 
	C406.041992,555.680847 408.575470,555.721069 408.233612,559.241516 
	C407.510986,566.683289 406.669189,574.114014 405.797607,581.540100 
	C405.686829,582.484070 405.254120,583.485779 403.959595,583.851990 
	C401.453979,583.410950 401.998199,581.314392 401.922607,579.596191 
	C401.812988,577.103271 401.974396,574.585022 401.689117,572.115723 
	C400.665802,563.259094 392.122894,557.789856 383.673615,560.518127 
	C380.425110,561.567017 379.949585,564.541687 379.354767,567.284851 
	C376.149719,582.065369 373.014648,596.861206 369.844238,611.649292 
	C366.046692,629.362610 362.229828,647.071838 358.436768,664.786133 
	C356.067902,675.849365 356.080688,675.852112 366.467743,681.036072 
	C365.696808,684.071472 363.138824,683.411682 361.279205,683.186462 
	C352.310883,682.099976 343.371918,681.958923 334.414948,683.219666 
	C333.442596,683.356506 332.421600,683.215332 331.429932,683.127136 
	C330.510925,683.045410 329.822662,682.496460 329.720612,681.590576 
	C329.578186,680.325684 330.466461,679.850403 331.561249,679.734131 
	C334.927338,679.376831 338.138367,678.645081 340.906677,675.869446 
z"/>
<path fill="#000000" opacity="1.000000" stroke="none" 
	d="
M757.515259,642.311768 
	C751.673767,652.463806 747.462708,662.977783 742.907043,673.329163 
	C741.539551,676.436279 742.604004,678.412781 745.895386,679.347168 
	C747.251953,679.732361 748.999817,679.318298 749.849792,680.972473 
	C748.183899,683.204346 729.425598,683.771362 726.128967,681.702881 
	C726.074158,680.438293 726.859558,679.893005 727.945740,679.771118 
	C735.224182,678.954163 738.680420,673.949219 741.436829,667.893005 
	C755.300049,637.433899 769.258240,607.018066 783.184998,576.587891 
	C785.679382,571.137634 788.098267,565.650391 790.725098,560.264587 
	C791.726685,558.210938 791.870544,554.449707 795.152954,555.285706 
	C798.144043,556.047485 797.041260,559.505615 797.136780,561.851624 
	C797.522705,571.333679 797.744080,580.822388 798.043579,590.308044 
	C798.784424,613.770386 799.496338,637.233765 800.302185,660.693848 
	C800.582764,668.861267 798.086853,678.429749 810.472961,680.707642 
	C808.257446,682.859192 778.039551,683.012573 776.051147,681.409485 
	C776.734070,678.950195 779.050720,679.736755 780.619568,679.289185 
	C784.692566,678.127197 786.887146,675.732788 786.781433,671.396790 
	C786.570557,662.745605 786.939758,654.085083 785.978699,645.444641 
	C785.567139,641.745056 783.944641,640.108948 780.224121,640.177368 
	C774.396423,640.284607 768.565002,640.206604 762.735291,640.185364 
	C760.837097,640.178406 759.082703,640.491089 757.515259,642.311768 
M761.451355,632.920654 
	C760.845520,636.012695 762.642151,636.662415 765.178101,636.643494 
	C769.826294,636.608826 774.486206,636.409424 779.120056,636.663818 
	C784.015991,636.932617 785.766663,634.445740 785.631348,630.068848 
	C785.385559,622.111572 784.922485,614.160217 784.742676,606.201965 
	C784.590698,599.474609 784.711365,592.741089 784.711365,586.010254 
	C784.083801,585.919312 783.456238,585.828369 782.828613,585.737427 
	C775.780640,601.224243 768.732666,616.711060 761.451355,632.920654 
z"/>
<path fill="#000000" opacity="1.000000" stroke="none" 
	d="
M213.037781,773.796143 
	C215.868805,772.116028 218.653107,771.633423 221.475250,771.342529 
	C228.098251,770.659973 229.400650,771.950623 231.650650,778.168823 
	C233.738052,783.937683 236.187653,789.530823 237.698166,795.541687 
	C239.391647,802.280701 239.405075,809.027100 239.321289,815.845581 
	C239.286407,818.685852 237.815567,820.501892 235.439514,821.748169 
	C228.107941,825.593811 214.172501,821.717834 209.965469,814.617432 
	C208.809906,812.667175 207.681030,810.617920 208.900269,808.346130 
	C210.711639,808.080444 211.363342,809.209106 211.905167,810.148865 
	C215.579453,816.522156 221.755707,817.417908 228.226929,817.834778 
	C231.934509,818.073608 234.263901,816.267456 234.280655,812.793396 
	C234.319626,804.710205 234.094849,796.586243 230.556183,788.281433 
	C225.646042,792.032410 220.607635,792.269531 215.389328,790.197815 
	C207.314621,786.992188 206.110764,779.745667 213.037781,773.796143 
M219.114456,786.340820 
	C220.980560,786.875122 222.846191,786.737793 224.381668,785.604126 
	C226.973419,783.690491 228.956573,780.943665 226.745331,778.017822 
	C224.437073,774.963745 220.876068,776.807922 217.877533,777.457764 
	C215.878860,777.890991 213.824768,778.994629 213.653717,781.195068 
	C213.414047,784.278625 215.996429,785.253601 219.114456,786.340820 
z"/>
<path fill="#000000" opacity="1.000000" stroke="none" 
	d="
M665.806641,813.194092 
	C666.361450,810.641541 666.344910,808.093872 669.421753,807.639709 
	C671.430176,818.608521 675.527222,822.601379 684.539062,822.686829 
	C689.075073,822.729797 692.287659,820.795837 693.722839,816.490295 
	C696.388550,808.493530 695.253479,800.413147 693.865784,792.368286 
	C693.465454,790.047485 691.939026,789.489990 689.781067,790.085938 
	C687.862183,790.615845 685.933655,791.153992 683.975281,791.488586 
	C680.272461,792.120972 676.451477,792.436340 674.064087,788.765381 
	C671.374695,784.630066 671.208984,780.006226 672.464478,775.319641 
	C672.680054,774.515198 673.153137,773.784790 674.152954,773.729858 
	C675.313293,773.666077 675.959167,774.333984 676.431152,775.304443 
	C677.265137,777.019226 677.215088,778.863464 677.239258,780.686646 
	C677.287354,784.312866 678.466614,786.795837 682.656128,786.910278 
	C686.905640,787.026367 689.728699,785.479126 690.543457,781.060486 
	C690.955627,778.825562 690.038086,776.391907 691.510132,774.278137 
	C694.122192,773.739624 694.649475,775.761597 695.212769,777.404480 
	C698.682373,787.523438 700.663330,798.023865 701.056580,808.631897 
	C701.330750,816.027222 698.788757,823.159485 691.026306,826.079651 
	C683.055603,829.078125 675.600952,826.666931 669.070129,821.640503 
	C666.606934,819.744629 665.676453,816.775085 665.806641,813.194092 
z"/>
<path fill="#000000" opacity="1.000000" stroke="none" 
	d="
M345.583496,786.711121 
	C353.436737,786.829041 354.650543,785.672668 354.952911,778.240540 
	C355.034363,776.238708 355.034393,776.238708 356.449127,773.806885 
	C358.885620,773.823425 359.371429,775.881226 359.864380,777.506348 
	C363.106049,788.193542 365.639191,799.031311 365.375977,810.300354 
	C365.184174,818.510437 361.060364,824.569153 354.557983,826.597656 
	C347.729340,828.727966 336.503510,825.568298 332.549408,820.403015 
	C329.205322,816.034668 329.951660,810.083557 334.353790,807.680847 
	C335.561859,810.157837 333.652161,812.800537 335.022980,815.340088 
	C337.428345,819.796204 344.828918,823.452637 350.965149,822.623657 
	C356.649872,821.855591 358.657898,817.582336 359.328888,812.792969 
	C360.253601,806.192810 360.065277,799.528137 358.673065,792.944641 
	C358.117401,790.316956 356.891846,789.261963 354.086639,790.092224 
	C351.391541,790.889832 348.601196,791.499023 345.810364,791.805481 
	C342.442566,792.175415 339.463257,791.209778 337.985199,787.779724 
	C336.137421,783.491577 336.141205,779.060059 337.434479,774.638977 
	C337.675659,773.814453 338.638092,773.541626 339.543121,773.847595 
	C341.122528,774.381409 341.156555,775.761841 341.320831,777.098877 
	C341.753418,780.619141 341.002228,784.631470 345.583496,786.711121 
z"/>
<path fill="#000000" opacity="1.000000" stroke="none" 
	d="
M44.988319,758.157471 
	C45.880558,755.943176 46.566959,754.063660 47.385376,752.243408 
	C49.498783,747.543030 51.879921,747.080322 55.612942,750.786316 
	C57.012478,752.175720 58.312939,753.792114 59.205379,755.536865 
	C60.715820,758.489746 62.440395,761.522949 63.017925,764.713745 
	C63.695541,768.457336 68.491257,768.043701 69.008179,771.931274 
	C64.504250,773.889099 64.977905,777.533386 66.129898,781.423889 
	C66.600327,783.012512 66.877022,784.659912 67.213028,786.286560 
	C67.615532,788.235168 68.443787,790.601990 65.666214,791.247620 
	C62.431541,791.999451 62.399937,789.108459 62.030113,787.106995 
	C61.487675,784.171387 61.094604,781.190002 60.908829,778.211243 
	C60.672565,774.422974 58.842251,772.801636 55.099861,773.268066 
	C51.194088,773.754822 46.279900,772.289368 45.144119,778.221130 
	C44.707691,780.500488 44.552380,782.834106 44.282417,785.144592 
	C43.989582,787.650696 43.068924,790.201660 40.248970,789.853027 
	C37.341045,789.493408 37.991234,786.744934 38.302681,784.609375 
	C39.603115,775.692322 41.787758,766.996582 44.988319,758.157471 
M56.056244,760.449219 
	C55.147373,758.761841 54.624432,756.654541 51.876396,756.673523 
	C49.930756,760.287231 48.521328,764.036926 47.981121,768.341675 
	C51.665504,769.109070 54.711620,767.973267 57.891975,767.046753 
	C58.032047,764.710022 56.920223,762.975891 56.056244,760.449219 
z"/>
<path fill="#000000" opacity="1.000000" stroke="none" 
	d="
M512.106873,759.700928 
	C517.479065,758.797119 522.472168,758.680542 527.462769,758.851685 
	C529.550232,758.923218 532.473389,758.885742 532.231201,761.862122 
	C532.016602,764.499146 529.295410,763.350281 527.688416,763.294006 
	C522.475281,763.111206 517.451294,763.993530 512.397278,765.145325 
	C508.893677,765.943665 507.625702,767.731384 508.401764,771.337097 
	C512.681946,772.582947 516.904175,770.874512 521.160339,770.881348 
	C522.657043,770.883728 524.155151,770.725647 525.650330,770.755249 
	C527.163269,770.785095 528.855835,770.843872 528.971069,772.900391 
	C529.080200,774.847351 527.471313,775.311829 526.003906,775.671875 
	C522.225891,776.599060 518.369141,775.805664 514.561218,776.109497 
	C511.457458,776.357117 507.763184,775.959839 507.285431,780.375488 
	C506.801056,784.851990 509.788055,786.334534 513.609497,787.169800 
	C518.482361,788.234924 523.200378,786.600830 528.003967,786.734436 
	C529.893433,786.787048 532.515198,785.726318 532.757690,788.704834 
	C533.007751,791.776611 530.245972,791.851379 528.126282,791.862244 
	C522.305542,791.892151 516.462830,791.995178 510.667999,791.554626 
	C504.719208,791.102356 502.091888,788.062378 501.666534,782.233582 
	C501.263519,776.711487 502.086151,771.266235 502.957916,765.863708 
	C503.727173,761.096680 507.982880,760.673157 512.106873,759.700928 
z"/>
<path fill="#000000" opacity="1.000000" stroke="none" 
	d="
M749.405701,784.782349 
	C755.332581,788.165039 761.299500,787.066956 767.170715,786.137634 
	C769.016296,785.845581 771.414917,785.008301 771.410095,782.576050 
	C771.405762,780.362793 769.418945,779.073669 767.523987,778.477051 
	C761.821045,776.681519 756.035339,775.150085 750.292542,773.478760 
	C747.845886,772.766785 744.605591,772.936523 744.392639,769.279297 
	C744.187256,765.751282 746.498962,763.854187 749.451599,762.627258 
	C755.402222,760.154480 761.636963,759.408508 768.025635,759.756775 
	C769.347168,759.828796 770.880737,759.911743 770.944946,761.729431 
	C771.003174,763.379883 769.679626,764.009155 768.337097,764.249817 
	C765.889099,764.688782 763.418335,765.042786 760.942261,765.272278 
	C757.832458,765.560425 754.725281,765.748596 750.908936,768.405151 
	C757.480957,770.304810 763.061279,772.073975 768.728577,773.496521 
	C772.047974,774.329712 774.496460,775.948914 775.926758,779.045471 
	C778.117004,783.787415 776.568665,788.234009 771.636658,789.988037 
	C764.027161,792.694336 756.215332,792.490845 748.656250,789.861389 
	C744.927307,788.564209 742.735229,785.715332 744.379150,781.318909 
	C747.171753,780.859741 747.738892,783.279053 749.405701,784.782349 
z"/>
<path fill="#000000" opacity="1.000000" stroke="none" 
	d="
M988.177673,781.096924 
	C988.055359,784.676941 988.772156,787.833069 987.535583,791.698486 
	C979.921082,787.514832 971.751770,791.932129 963.903992,789.499390 
	C959.937439,788.269775 956.707397,786.606079 956.356445,782.085815 
	C955.998413,777.475891 958.678894,774.676025 962.653564,772.933350 
	C968.664062,770.298035 974.625916,771.445007 980.685486,773.613464 
	C982.903748,769.546509 980.434875,764.885864 983.124207,760.107422 
	C988.479980,766.676025 986.920471,774.025818 988.177673,781.096924 
M971.412109,776.523376 
	C969.461670,776.837463 967.465698,776.986938 965.573486,777.511292 
	C963.626343,778.050842 961.641174,779.118713 961.599487,781.382629 
	C961.555298,783.781006 963.717896,784.538696 965.647400,785.066833 
	C970.018555,786.263428 974.492126,785.684631 978.926392,785.596558 
	C980.676758,785.561829 981.567688,784.452576 981.611145,782.684204 
	C981.649475,781.128601 981.556030,779.811768 979.619934,779.253784 
	C977.096130,778.526245 974.660706,777.492004 971.412109,776.523376 
z"/>
<path fill="#000000" opacity="1.000000" stroke="none" 
	d="
M187.412750,777.083984 
	C182.189453,780.641052 175.990250,780.202393 170.451141,782.752869 
	C171.635178,786.139099 174.238358,786.690857 176.869156,786.732117 
	C182.022583,786.812927 187.180054,786.611816 192.336182,786.560669 
	C193.742416,786.546753 195.670380,785.892090 195.939209,788.060913 
	C196.192154,790.101868 194.303741,790.304871 192.866913,790.579529 
	C186.465546,791.803345 179.976700,792.403931 173.508163,791.680359 
	C166.607803,790.908508 162.051468,783.165283 164.027390,776.217224 
	C166.000320,769.279602 175.122101,764.384338 182.054062,766.542969 
	C187.317978,768.182251 188.905533,771.062927 187.412750,777.083984 
M172.423782,776.825745 
	C176.339081,776.591309 180.554260,776.925049 182.557877,771.833435 
	C177.953949,770.550964 174.482681,771.544250 171.428238,774.156494 
	C170.377579,775.055176 169.280106,776.222107 172.423782,776.825745 
z"/>
<path fill="#000000" opacity="1.000000" stroke="none" 
	d="
M799.934937,786.569458 
	C805.996216,787.224243 811.639709,786.864380 817.286682,786.572144 
	C818.688293,786.499573 820.631470,785.863708 820.943726,787.987427 
	C821.241760,790.014771 819.375244,790.186462 817.908630,790.490601 
	C811.522461,791.815125 805.057983,792.375427 798.586182,791.610596 
	C792.046936,790.837708 787.891113,784.759033 788.751648,777.772095 
	C789.827026,769.041016 802.235046,763.064758 809.721924,767.660339 
	C812.397522,769.302673 813.589355,771.644409 813.319092,774.780029 
	C813.064575,777.732727 810.782410,778.510681 808.536499,779.125000 
	C804.266113,780.293030 799.943176,781.268982 795.702759,782.309814 
	C795.508728,785.494568 797.837769,785.676453 799.934937,786.569458 
M805.929749,774.743774 
	C807.149475,773.406372 808.405212,771.655945 805.481384,771.343140 
	C801.327759,770.898743 797.506042,771.953308 794.845032,776.419006 
	C798.873352,777.027649 802.213623,777.081909 805.929749,774.743774 
z"/>
<path fill="#000000" opacity="1.000000" stroke="none" 
	d="
M590.218140,770.181885 
	C595.137512,766.430115 600.084167,764.527039 605.809753,767.168640 
	C608.953186,768.618896 610.906067,771.081177 610.636414,774.617615 
	C610.384521,777.919983 607.539917,778.602905 604.921936,779.278137 
	C600.836365,780.331848 596.741882,781.350891 592.635254,783.221436 
	C600.225891,789.771240 609.528687,785.272888 617.741577,786.984802 
	C618.742554,789.901550 616.700500,790.215332 614.914795,790.587402 
	C609.684692,791.676941 604.373535,791.859070 599.049438,791.916931 
	C593.625732,791.975769 589.239685,790.356140 586.972778,784.950928 
	C584.652771,779.419434 585.493042,774.563171 590.218140,770.181885 
M593.094299,776.695740 
	C597.405457,776.744995 601.922485,777.291016 604.582825,772.310486 
	C598.605286,770.321472 594.819580,771.719482 593.094299,776.695740 
z"/>
<path fill="#000000" opacity="1.000000" stroke="none" 
	d="
M283.749023,790.904236 
	C279.703217,792.671082 276.141968,791.835571 272.871826,790.023193 
	C269.867798,788.358276 267.014984,788.039490 263.834503,789.311829 
	C262.471649,789.856995 260.940338,790.141846 259.467773,790.223328 
	C253.813782,790.535950 249.043671,786.908142 248.156158,781.762817 
	C247.443436,777.630798 250.313065,773.808594 255.500839,771.815735 
	C260.513702,769.889954 265.319672,770.840332 270.041107,772.772034 
	C272.889862,773.937683 273.692383,776.104248 273.470612,779.193298 
	C272.982788,785.988708 273.780670,786.650513 280.601685,786.528320 
	C283.472504,786.476929 286.537903,786.275330 283.749023,790.904236 
M263.192169,776.100220 
	C261.705048,776.166992 260.184174,776.058960 258.738068,776.338196 
	C256.007294,776.865356 253.303635,777.938354 253.518570,781.269531 
	C253.728790,784.527527 256.534363,784.795532 259.111938,784.863525 
	C260.601013,784.902832 262.095367,784.805298 263.585480,784.731323 
	C267.075836,784.557983 267.929230,781.983521 268.164886,779.242981 
	C268.418976,776.288025 265.853394,776.589600 263.192169,776.100220 
z"/>
<path fill="#000000" opacity="1.000000" stroke="none" 
	d="
M894.902100,791.257812 
	C890.168030,791.954773 885.860901,791.928467 881.717285,790.397095 
	C877.061218,788.676392 875.096436,784.952393 876.074768,780.116333 
	C877.670166,772.229553 883.517822,767.326416 890.638367,767.905151 
	C900.059570,768.670898 905.161926,775.802124 902.934265,785.009155 
	C901.954956,789.056641 898.841736,790.364929 894.902100,791.257812 
M886.577698,773.646667 
	C885.238464,774.868469 883.716736,775.945679 882.605530,777.348145 
	C881.171448,779.157959 879.807251,781.202393 881.183167,783.692261 
	C883.455505,787.804260 895.151733,788.333801 897.824463,784.475769 
	C898.860352,782.980408 898.768677,781.322388 898.434387,779.684875 
	C897.404175,774.637695 894.209961,772.855408 886.577698,773.646667 
z"/>
<path fill="#000000" opacity="1.000000" stroke="none" 
	d="
M125.620590,791.478394 
	C122.853394,792.032532 120.543884,791.742249 118.260361,791.253113 
	C115.500702,790.661987 113.784813,788.977600 113.753319,786.087830 
	C113.682671,779.606384 113.718849,773.123169 113.790825,766.641479 
	C113.801514,765.678772 114.172379,764.695679 114.502937,763.767029 
	C114.903038,762.643066 115.516006,761.558167 116.915268,761.619080 
	C118.685570,761.695984 119.003265,763.108582 119.020836,764.466125 
	C119.087532,769.618042 119.313843,774.786621 118.999077,779.919373 
	C118.697411,784.838440 120.791283,786.470947 125.435005,786.132690 
	C132.389389,785.626160 139.358810,785.290710 146.327499,785.039368 
	C148.321503,784.967407 151.406601,784.063904 151.739334,786.923523 
	C152.076691,789.822754 148.942154,789.727112 146.920639,789.905029 
	C139.974930,790.515991 133.012527,790.937439 125.620590,791.478394 
z"/>
<path fill="#000000" opacity="1.000000" stroke="none" 
	d="
M315.461792,775.268433 
	C311.595520,774.973389 308.086670,773.757202 304.510254,775.363525 
	C302.065002,776.461731 299.335358,777.284912 299.356964,780.642822 
	C299.376678,783.702393 301.741119,784.824646 304.134521,785.688110 
	C308.659973,787.320496 313.196503,787.418457 317.771057,785.688110 
	C320.032410,784.832642 322.207062,783.328308 325.119293,784.062622 
	C326.173523,787.711914 323.929260,789.453430 321.196014,790.328369 
	C314.003662,792.630554 306.744080,792.466492 299.808685,789.384094 
	C295.839417,787.619995 293.754730,784.093628 293.891327,779.763184 
	C294.020477,775.669250 296.703003,773.154724 300.366638,771.710754 
	C304.612701,770.037415 309.058014,769.319824 313.563080,770.026489 
	C316.497101,770.486694 318.335144,771.968872 315.461792,775.268433 
z"/>
<path fill="#000000" opacity="1.000000" stroke="none" 
	d="
M850.809692,786.898926 
	C855.645081,787.107666 859.118408,783.248352 864.001465,783.986938 
	C864.808044,787.580933 862.619995,789.344666 859.897522,790.254211 
	C852.522827,792.718018 845.126526,792.488281 838.081665,789.081116 
	C834.338318,787.270813 832.542603,783.993347 832.691895,779.707947 
	C832.842773,775.377380 835.548828,773.155396 839.149353,771.722351 
	C843.227112,770.099304 847.494141,769.441040 851.870667,769.954102 
	C853.822083,770.182922 855.587708,771.006226 855.159912,773.422852 
	C854.717285,775.922852 852.957520,776.065125 850.995117,775.153748 
	C849.569397,774.491577 848.130737,774.265076 846.631531,774.681030 
	C843.065918,775.669983 838.118042,775.558960 838.316467,780.768921 
	C838.503296,785.673340 843.211670,785.906616 846.893677,786.714111 
	C848.014893,786.959900 849.213196,786.853516 850.809692,786.898926 
z"/>
<path fill="#000000" opacity="1.000000" stroke="none" 
	d="
M933.706787,776.520569 
	C927.379517,776.573792 924.022461,780.151794 921.550293,785.072449 
	C920.785217,786.595154 920.233521,788.904358 917.768188,788.248901 
	C915.463013,787.636047 914.861450,785.459778 914.982361,783.456360 
	C915.203491,779.795044 913.953003,775.863159 916.356506,772.535706 
	C919.656433,772.415710 919.079346,775.734802 920.775269,776.872437 
	C921.989807,777.052551 922.524048,776.048401 923.217224,775.401794 
	C927.353333,771.543640 932.095886,770.184631 937.454590,772.249268 
	C942.583374,774.225342 944.260010,778.751404 945.184265,783.661804 
	C945.398193,784.798218 945.359924,785.981445 945.448303,787.142334 
	C945.568604,788.723328 946.521484,790.795166 944.263000,791.388550 
	C942.001526,791.982605 940.388977,790.434937 939.720215,788.397766 
	C939.161804,786.696838 938.907410,784.822388 938.912476,783.025879 
	C938.922180,779.562317 937.670654,777.237427 933.706787,776.520569 
z"/>
<path fill="#000000" opacity="1.000000" stroke="none" 
	d="
M428.156067,787.203979 
	C425.906769,782.047363 426.854919,777.316345 427.939941,772.638611 
	C431.673798,772.349121 430.863708,775.863098 433.048553,777.154114 
	C438.278351,772.241028 444.432251,768.551025 451.438507,773.472961 
	C457.380859,777.647583 457.819305,784.244080 457.059479,791.148438 
	C452.374481,791.832092 451.397278,788.897339 451.030182,785.622559 
	C450.613312,781.904358 451.544128,777.389099 446.175171,776.635132 
	C441.201904,775.936768 437.545929,778.413025 434.973816,782.566040 
	C434.098785,783.978882 433.344452,785.465881 432.499298,786.897949 
	C431.393433,788.771790 429.995728,788.870667 428.156067,787.203979 
z"/>
<path fill="#000000" opacity="1.000000" stroke="none" 
	d="
M549.086426,769.099854 
	C551.676697,773.533081 554.057068,777.686279 556.622742,782.162964 
	C562.457153,777.010193 563.219421,767.050598 572.452820,765.351196 
	C573.437805,767.862732 572.121155,768.643188 571.256042,769.547119 
	C566.251892,774.776245 562.391479,780.708618 560.096069,787.599060 
	C559.373840,789.767151 558.551086,791.570862 555.741882,791.487000 
	C552.878052,791.401489 552.889587,789.130859 552.319580,787.334961 
	C550.609985,781.948364 548.943359,776.558350 545.249146,772.089844 
	C544.407471,771.071777 543.373901,769.883240 544.565186,768.578979 
	C545.979736,767.030334 547.508545,767.449463 549.086426,769.099854 
z"/>
<path fill="#000000" opacity="1.000000" stroke="none" 
	d="
M642.612183,773.483398 
	C639.234924,775.978821 638.024414,779.037415 638.276733,782.817383 
	C638.397705,784.630310 638.306458,786.470703 638.151306,788.284973 
	C638.003235,790.015808 636.849182,790.980469 635.175232,791.049255 
	C633.437012,791.120667 633.061829,789.697021 632.817444,788.367676 
	C632.158691,784.783813 631.560913,781.188782 630.934082,777.599060 
	C630.671265,776.093933 631.174011,774.476196 632.630981,774.538818 
	C636.132507,774.689514 637.841492,772.043884 640.236877,770.431458 
	C645.524353,766.872070 651.144043,764.844910 657.609375,766.811462 
	C659.230042,767.304382 660.778015,767.746887 661.045654,770.199463 
	C655.258850,773.040833 648.294678,768.985107 642.612183,773.483398 
z"/>
<path fill="#000000" opacity="1.000000" stroke="none" 
	d="
M413.064941,769.349854 
	C413.029907,775.649170 413.542603,781.421265 414.951172,787.119751 
	C415.317444,788.601562 416.101471,790.632690 413.852173,791.382202 
	C412.082733,791.971863 410.642670,790.924133 409.545044,789.536133 
	C407.705566,787.210144 407.046692,784.431152 406.976562,781.585693 
	C406.849487,776.427673 406.878448,771.261658 407.016144,766.103577 
	C407.067902,764.165100 407.073669,761.428467 409.468811,761.210754 
	C412.485504,760.936523 412.108948,763.947632 412.542206,765.939453 
	C412.754181,766.914185 412.871552,767.909546 413.064941,769.349854 
z"/>
</svg>