<?xml version="1.0" standalone="no"?>
<!DOCTYPE svg PUBLIC "-//W3C//DTD SVG 20010904//EN"
 "http://www.w3.org/TR/2001/REC-SVG-20010904/DTD/svg10.dtd">
<svg version="1.0" xmlns="http://www.w3.org/2000/svg"
 width="360.000000pt" height="360.000000pt" viewBox="0 0 360.000000 360.000000"
 preserveAspectRatio="xMidYMid meet">

<g transform="translate(0.000000,360.000000) scale(0.100000,-0.100000)"
fill="#C23737" stroke="none">
<path d="M2302 2964 c-29 -20 -28 -29 13 -130 19 -47 29 -84 22 -81 -7 3 -49
22 -95 42 -46 20 -127 48 -180 62 -86 23 -116 26 -262 26 -146 0 -176 -3 -262
-26 -446 -119 -758 -471 -819 -924 -23 -174 8 -392 79 -559 57 -135 95 -177
130 -142 19 19 14 43 -27 126 -22 43 -52 118 -67 168 -26 83 -28 101 -28 274
0 173 2 191 27 273 29 93 90 223 140 297 40 58 169 192 228 235 173 128 379
195 599 195 173 0 342 -42 478 -118 l47 -27 -114 -15 c-95 -13 -116 -18 -128
-36 -12 -18 -11 -24 4 -43 l18 -22 165 21 c207 26 207 26 215 49 8 25 -121
348 -145 361 -11 6 -24 4 -38 -6z"/>
<path d="M2672 2368 c-19 -19 -14 -43 27 -126 22 -43 52 -118 67 -168 26 -83
28 -101 28 -274 0 -173 -2 -191 -27 -273 -29 -93 -90 -223 -140 -297 -45 -66
-173 -196 -242 -245 -118 -84 -281 -153 -415 -174 -95 -16 -266 -13 -361 5
-92 17 -212 60 -287 102 l-47 27 114 15 c95 13 116 18 128 36 12 18 11 24 -4
43 l-18 22 -165 -21 c-207 -26 -207 -26 -215 -49 -8 -25 121 -348 145 -361 20
-11 60 13 60 36 0 8 -16 53 -35 100 -19 47 -29 84 -22 81 7 -3 49 -22 95 -42
46 -20 127 -48 180 -62 86 -23 116 -26 262 -26 146 0 176 3 262 26 446 119
758 471 819 924 23 174 -8 392 -79 559 -57 135 -95 177 -130 142z"/>
<path d="M1425 2248 c-176 -28 -321 -52 -323 -53 -6 -5 -102 -369 -98 -372 2
-2 23 -7 47 -11 l44 -8 3 -191 c2 -172 4 -192 20 -197 9 -3 168 -28 352 -56
l335 -51 345 53 345 54 5 194 5 195 48 8 c26 5 47 12 47 16 0 3 -22 87 -49
186 -31 117 -53 181 -62 183 -137 25 -671 102 -702 101 -23 -1 -186 -24 -362
-51z m593 -43 c203 -32 264 -45 221 -45 -8 0 -112 -16 -231 -34 l-216 -34
-218 34 c-220 34 -256 41 -219 44 16 1 419 65 434 69 2 1 105 -15 229 -34z
m470 -203 c19 -67 33 -124 31 -125 -5 -4 -593 -95 -597 -92 -3 2 -59 205 -64
230 -3 18 16 23 287 66 160 26 294 46 299 45 5 -1 25 -57 44 -124z m-1020 74
c150 -24 274 -45 277 -47 4 -5 -59 -236 -67 -244 -4 -4 -590 84 -596 90 -1 1
12 57 30 123 31 115 34 122 58 122 14 -1 148 -20 298 -44z m299 -692 c-2 -2
-133 17 -292 41 -158 25 -292 45 -296 45 -5 0 -9 72 -9 160 0 88 3 160 8 160
4 0 125 -18 270 -41 145 -22 269 -39 275 -36 7 3 19 29 27 58 15 52 15 48 18
-165 1 -120 1 -220 -1 -222z m92 369 c6 -24 15 -43 19 -43 4 0 122 18 262 40
140 22 265 40 277 40 23 0 23 0 23 -158 l0 -158 -272 -43 c-150 -23 -286 -43
-301 -44 l-28 -2 -2 212 c-1 117 1 209 4 205 3 -4 11 -26 18 -49z"/>
</g>
</svg>
