<?xml version="1.0" standalone="no"?>
<!DOCTYPE svg PUBLIC "-//W3C//DTD SVG 20010904//EN"
 "http://www.w3.org/TR/2001/REC-SVG-20010904/DTD/svg10.dtd">
<svg version="1.0" xmlns="http://www.w3.org/2000/svg"
 width="563.000000pt" height="360.000000pt" viewBox="0 0 563.000000 360.000000"
 preserveAspectRatio="xMidYMid meet">

<g transform="translate(0.000000,360.000000) scale(0.100000,-0.100000)"
fill="#C23737" stroke="none">
<path d="M1494 2771 c-87 -22 -134 -77 -144 -168 -4 -39 -12 -68 -21 -74 -8
-5 -74 -9 -147 -9 -99 0 -140 -4 -162 -15 -38 -19 -40 -56 -5 -90 l24 -25 504
0 c521 0 557 3 578 41 11 22 -11 73 -36 83 -9 3 -151 6 -316 6 l-299 0 0 39
c0 23 8 48 19 62 l19 24 1016 0 c776 0 1018 -3 1027 -12 9 -9 -3 -154 -55
-650 -37 -351 -70 -668 -73 -706 -3 -37 -11 -74 -17 -82 -9 -12 -92 -15 -577
-16 -311 -1 -571 1 -578 5 -6 4 -11 22 -11 39 0 49 -54 134 -105 166 -64 41
-123 54 -212 49 -145 -8 -254 -81 -309 -204 l-24 -54 -117 0 c-65 0 -124 4
-132 9 -31 20 3 383 41 428 8 10 50 13 164 13 146 0 154 1 180 23 21 18 26 29
21 49 l-7 25 -197 7 c-109 3 -366 9 -570 12 -409 7 -403 8 -403 -52 0 -65 -3
-64 351 -64 l319 0 0 -37 c0 -21 -7 -99 -15 -173 -18 -166 -19 -257 -2 -290 7
-13 28 -35 46 -47 31 -21 45 -23 161 -23 141 0 137 2 164 -70 30 -80 78 -135
150 -170 62 -31 70 -32 158 -28 82 3 100 8 156 38 73 39 111 78 152 160 l30
60 723 0 723 0 17 -54 c57 -181 254 -264 433 -182 67 31 149 113 184 183 l25
50 85 6 c47 4 103 11 124 18 49 14 94 60 100 102 46 344 57 436 56 509 0 134
-16 166 -171 343 -189 217 -265 292 -329 323 -55 27 -57 27 -299 30 l-243 4 8
76 c21 180 6 260 -53 299 -25 17 -93 18 -1063 20 -569 1 -1049 -2 -1066 -6z
m2671 -555 c77 -40 214 -176 322 -320 97 -129 108 -163 93 -283 -6 -43 -15
-130 -20 -193 -19 -218 -33 -243 -136 -238 -62 3 -62 3 -91 83 -24 70 -102
146 -172 170 -84 27 -189 18 -269 -25 -73 -39 -155 -123 -172 -177 -7 -21 -19
-44 -28 -50 -16 -13 -108 -18 -136 -7 -28 11 -25 48 54 714 16 140 32 279 36
307 l5 53 187 2 c237 4 254 2 327 -36z m-2168 -897 c66 -25 122 -109 123 -185
0 -97 -96 -205 -196 -220 -157 -23 -264 131 -189 274 32 61 52 85 99 116 42
28 111 35 163 15z m2141 -17 c115 -53 117 -248 2 -331 -51 -37 -117 -55 -185
-49 -63 5 -89 24 -116 83 -85 184 115 382 299 297z"/>
<path d="M3818 2123 c-39 -3 -49 -8 -53 -26 -6 -30 -23 -167 -31 -259 l-6 -78
341 0 c193 0 341 4 341 9 0 5 -51 66 -112 137 -62 70 -126 142 -141 160 -16
20 -43 37 -65 43 -45 12 -209 20 -274 14z"/>
<path d="M756 2244 c-22 -21 -20 -67 2 -87 17 -15 72 -17 580 -17 616 0 592
-2 592 60 0 62 24 60 -595 60 -499 0 -565 -2 -579 -16z"/>
<path d="M904 2000 c-29 -11 -39 -56 -20 -85 8 -12 29 -25 47 -29 57 -11 1203
-7 1237 5 17 6 34 19 37 29 10 31 -6 71 -32 81 -31 11 -1240 11 -1269 -1z"/>
</g>
</svg>
