<?xml version="1.0" standalone="no"?>
<!DOCTYPE svg PUBLIC "-//W3C//DTD SVG 20010904//EN"
 "http://www.w3.org/TR/2001/REC-SVG-20010904/DTD/svg10.dtd">
<svg version="1.0" xmlns="http://www.w3.org/2000/svg"
 width="225.000000pt" height="225.000000pt" viewBox="0 0 225.000000 225.000000"
 preserveAspectRatio="xMidYMid meet">

<g transform="translate(0.000000,225.000000) scale(0.100000,-0.100000)"
fill="#000000" stroke="none">
<path d="M1106 1879 c-57 -30 -60 -30 -121 -19 -98 18 -128 3 -176 -92 -25
-50 -37 -62 -87 -87 -90 -46 -96 -56 -88 -155 6 -80 4 -88 -24 -148 -44 -92
-40 -109 36 -189 39 -39 46 -54 55 -109 15 -94 32 -115 104 -130 l30 -6 5
-189 c5 -189 9 -215 34 -215 11 0 57 48 101 107 8 11 19 3 50 -34 l40 -48 5
-110 c5 -100 7 -110 25 -113 14 -2 33 14 63 52 79 98 71 97 138 16 42 -51 64
-70 79 -68 19 3 20 12 25 283 5 270 6 282 29 325 33 63 48 78 113 111 75 38
82 53 74 156 -6 79 -5 86 25 145 39 77 34 111 -22 164 -49 47 -69 83 -69 124
0 39 -21 90 -47 113 -11 10 -49 22 -83 28 -74 12 -91 20 -120 56 -55 70 -104
78 -194 32z m149 -70 c50 -51 77 -65 144 -74 63 -9 91 -32 91 -77 0 -62 19
-103 70 -153 27 -27 50 -55 50 -62 0 -8 -14 -42 -31 -76 -31 -60 -32 -64 -22
-132 13 -86 8 -96 -72 -138 -52 -28 -64 -40 -95 -97 l-36 -65 -89 3 c-76 2
-96 0 -130 -18 -83 -44 -79 -45 -146 15 -40 36 -72 56 -95 60 -19 3 -50 7 -69
10 -39 6 -65 36 -65 75 0 54 -23 104 -71 155 -27 29 -49 57 -49 64 0 6 14 37
30 68 31 59 36 92 20 158 -14 57 -5 72 58 104 67 34 81 48 116 119 15 29 33
55 42 59 8 3 43 0 79 -7 63 -12 66 -11 127 18 35 17 72 31 83 31 12 1 38 -17
60 -40z m-216 -979 l31 0 0 -87 0 -88 -39 43 c-21 23 -41 42 -44 42 -3 0 -24
-19 -46 -42 l-41 -43 0 139 0 139 54 -52 c42 -38 62 -51 85 -51z m301 -170 l0
-205 -46 53 c-40 45 -83 68 -84 45 -1 -5 -19 -28 -40 -53 l-40 -45 0 198 0
198 39 17 c33 15 49 16 105 8 l66 -10 0 -206z"/>
<path d="M1053 1740 c-116 -24 -220 -107 -269 -213 -26 -55 -29 -73 -29 -162
0 -90 3 -106 29 -159 39 -79 102 -140 184 -179 60 -29 77 -32 157 -32 80 0 97
3 157 32 82 39 145 100 184 179 26 53 29 69 29 159 0 89 -3 107 -29 163 -70
152 -252 246 -413 212z m157 -66 c142 -42 229 -157 230 -300 0 -39 -7 -91 -16
-117 -20 -61 -93 -141 -158 -175 -44 -23 -63 -27 -141 -27 -78 0 -97 4 -141
27 -65 34 -138 114 -158 175 -23 67 -21 177 5 233 42 93 111 155 205 183 64
20 109 20 174 1z"/>
<path d="M1155 1380 c-60 -44 -111 -80 -112 -80 -2 0 -15 18 -29 40 -28 43
-44 49 -64 25 -10 -12 -5 -26 26 -75 23 -35 46 -60 56 -60 17 0 245 157 267
184 15 17 4 46 -18 46 -9 -1 -65 -37 -126 -80z"/>
</g>
</svg>
